<?xml version="1.0" standalone="no"?><!DOCTYPE svg PUBLIC "-//W3C//DTD SVG 1.1//EN" "http://www.w3.org/Graphics/SVG/1.1/DTD/svg11.dtd"><svg class="icon" width="200px" height="191.76px" viewBox="0 0 1068 1024" version="1.1" xmlns="http://www.w3.org/2000/svg"><path fill="#191e38" d="M534.46144 93.090909c32.581818 0 65.163636 16.290909 81.454545 51.2l30.254546 60.509091c34.909091 69.818182 104.727273 118.690909 183.854545 130.327273l67.490909 9.309091c74.472727 11.636364 104.727273 102.4 51.2 153.6l-48.872727 48.872727c-58.181818 55.854545-83.781818 134.981818-69.818182 211.781818l11.636364 67.490909c9.309091 58.181818-37.236364 104.727273-90.763636 104.727273-13.963636 0-27.927273-2.327273-41.890909-11.636364l-60.509091-32.581818c-37.236364-16.290909-74.472727-25.6-114.036364-25.6s-76.8 9.309091-114.036364 27.927273l-60.509091 32.581818c-13.963636 6.981818-27.927273 11.636364-41.890909 11.636364-53.527273 0-100.072727-46.545455-90.763636-104.727273l11.636364-67.490909c13.963636-76.8-11.636364-155.927273-69.818182-211.781818l-48.872727-48.872728c-53.527273-51.2-23.272727-141.963636 51.2-153.6l67.490909-9.309091c79.127273-11.636364 146.618182-60.509091 183.854545-130.327272l30.254546-60.509091C469.297804 109.381818 501.879622 93.090909 534.46144 93.090909m0-93.090909c-69.818182 0-132.654545 39.563636-165.236364 102.4L338.970531 162.909091c-20.945455 44.218182-62.836364 74.472727-114.036364 81.454545l-67.490909 9.309091c-69.818182 9.309091-128 58.181818-148.945454 125.672728-20.945455 67.490909-2.327273 137.309091 46.545454 186.181818l48.872727 48.872727c34.909091 32.581818 51.2 81.454545 41.89091 128l-11.636364 67.490909c-9.309091 53.527273 4.654545 107.054545 39.563636 148.945455C210.970531 1000.727273 262.170531 1024 318.025076 1024c30.254545 0 58.181818-6.981818 86.109091-20.945455l60.509091-32.581818c20.945455-11.636364 46.545455-16.290909 69.818182-16.290909s48.872727 6.981818 69.818182 16.290909l60.509091 32.581818c27.927273 13.963636 55.854545 20.945455 86.109091 20.945455 55.854545 0 107.054545-23.272727 141.963636-65.163636 34.909091-41.890909 48.872727-95.418182 39.563636-148.945455l-11.636363-67.490909c-9.309091-46.545455 6.981818-95.418182 41.890909-128l48.872727-48.872727c51.2-48.872727 69.818182-121.018182 46.545455-186.181818-20.945455-67.490909-79.127273-116.363636-148.945455-125.672728l-67.490909-9.309091c-48.872727-6.981818-90.763636-37.236364-114.036364-81.454545L697.370531 102.4C667.115985 39.563636 604.279622 0 534.46144 0z"  /></svg>